PathFileType	4	(X/Y/Z)	Kaydara																																																																																																																									
DataRate	CameraRate	NumFrames	NumMarkers	Units	OrigDataRate	OrigDataStartFrame	OrigNumFrames																																																																																																																					
30	30	6	41	mm	30	117	230																																																																																																																					
Frame#	Time	PAIB_LFHD			PAIB_RFHD			PAIB_LBHD			PAIB_RBHD			PAIB_LFTShould			PAIB_RFTShould			PAIB_LRRShould			PAIB_RRRShould			PAIB_T10			PAIB_STRN			PAIB_TRUN			PAIB_LSHO			PAIB_LUPA			PAIB_LELB			PAIB_LFRM			PAIB_LWRA			PAIB_LWRB			PAIB_LFIN			PAIB_RSHO			PAIB_RUPA			PAIB_RELB			PAIB_RFRM			PAIB_RWRA			PAIB_RWRB			PAIB_RFIN			PAIB_LFWT			PAIB_RFWT			PAIB_LBWT			PAIB_RBWT			PAIB_LTHI			PAIB_LKNE			PAIB_LSHN			PAIB_LANK			PAIB_LHEE			PAIB_LTOE			PAIB_RTHI			PAIB_RKNE			PAIB_RSHN			PAIB_RANK			PAIB_RHEE			PAIB_RTOE		
		X1	Y1	Z1	X2	Y2	Z2	X3	Y3	Z3	X4	Y4	Z4	X5	Y5	Z5	X6	Y6	Z6	X7	Y7	Z7	X8	Y8	Z8	X9	Y9	Z9	X10	Y10	Z10	X11	Y11	Z11	X12	Y12	Z12	X13	Y13	Z13	X14	Y14	Z14	X15	Y15	Z15	X16	Y16	Z16	X17	Y17	Z17	X18	Y18	Z18	X19	Y19	Z19	X20	Y20	Z20	X21	Y21	Z21	X22	Y22	Z22	X23	Y23	Z23	X24	Y24	Z24	X25	Y25	Z25	X26	Y26	Z26	X27	Y27	Z27	X28	Y28	Z28	X29	Y29	Z29	X30	Y30	Z30	X31	Y31	Z31	X32	Y32	Z32	X33	Y33	Z33	X34	Y34	Z34	X35	Y35	Z35	X36	Y36	Z36	X37	Y37	Z37	X38	Y38	Z38	X39	Y39	Z39	X40	Y40	Z40	X41	Y41	Z41
																																																																																																																												
116	3.853	210.70101	1669.72275	-1788.48862	24.46425	1674.93912	-1790.98343	220.96537	1638.23914	-1915.12909	18.46308	1653.88657	-1906.45813	182.59548	1401.06308	-1803.30292	59.50202	1400.04257	-1797.92206	185.81289	1468.44955	-1946.01776	31.92059	1468.41537	-1929.70627	99.44793	1312.34512	-2024.48273	128.89205	1334.60892	-1764.89624	127.42888	1232.55119	-1744.33487	308.40696	1407.70935	-1891.20102	358.24841	1185.08453	-1936.65649	367.51637	1109.74808	-1991.67007	397.42531	992.43744	-1975.35812	359.05025	860.56152	-1902.3172	385.80349	856.77872	-1976.20743	409.30908	810.8329	-1923.68698	-72.42028	1405.31067	-1847.32315	-140.27547	1230.72197	-1874.61502	-163.49863	1112.51076	-1871.96701	-171.60809	983.60565	-1811.39236	-101.06778	908.8501	-1695.43259	-169.60213	879.55917	-1736.64093	-156.68519	861.86302	-1664.63745	223.039	958.86162	-1804.51416	-11.39809	936.80107	-1801.33408	165.98606	1000.09659	-2017.93335	19.68587	1004.70253	-2013.21854	235.01574	711.21773	-1934.61868	274.59499	536.7881	-1723.7944	250.70232	340.18002	-1662.30499	250.9535	139.71767	-1706.66901	191.01164	120.97285	-1746.1264	249.30754	120.83291	-1531.05377	-25.61362	719.44923	-2043.04672	-21.60267	468.61977	-2009.37149	46.94899	285.46232	-2034.23447	23.13577	106.36217	-2153.36578	83.04677	121.75125	-2209.51736	44.92337	77.51865	-1993.17108
117	3.887	213.7569	1665.70145	-1766.00952	27.8728	1670.92331	-1768.75702	224.4054	1633.75458	-1892.54044	21.99929	1649.41498	-1883.9917	185.94156	1396.26068	-1780.70343	62.74815	1395.83344	-1775.06119	188.97444	1464.33563	-1923.22113	35.05213	1464.83078	-1906.57211	101.90063	1308.91968	-2002.28104	132.11197	1329.89273	-1742.56592	129.86898	1227.68654	-1722.41577	311.23894	1402.92618	-1869.38477	360.78449	1180.87845	-1917.04147	370.20115	1105.81512	-1971.80969	400.62454	988.47382	-1956.43005	363.17879	855.69756	-1884.34967	389.5414	852.80022	-1958.40179	413.55568	806.48964	-1906.43707	-69.53284	1401.76529	-1825.28534	-137.68827	1227.28882	-1851.09833	-161.36124	1109.12682	-1848.41278	-170.03962	980.26459	-1788.49121	-99.17447	904.3763	-1673.31573	-168.1432	875.77759	-1714.17358	-155.02817	857.71729	-1642.37839	224.79748	955.11383	-1782.35825	-9.58986	932.33429	-1781.21033	169.96597	996.12572	-1996.53854	23.47625	1000.31662	-1993.02032	238.04939	707.23373	-1911.4473	273.94131	533.35201	-1700.34866	249.66309	339.0226	-1634.30954	251.43946	137.54495	-1673.23029	192.3089	117.69711	-1713.24417	247.25166	122.2968	-1497.17651	-21.46666	718.40508	-2026.19263	-19.32302	467.23869	-1997.97241	48.22761	284.26332	-2027.61642	22.84511	109.10552	-2151.69388	83.07394	125.72891	-2207.47726	45.05321	77.48865	-1993.11523
118	3.92	217.52598	1662.64191	-1741.90033	31.91817	1667.50214	-1745.1181	228.60113	1630.1181	-1868.21365	26.00076	1645.5806	-1860.61722	190.10544	1392.18323	-1756.51566	66.8307	1392.17606	-1750.58014	192.9273	1460.80658	-1898.86597	38.90445	1461.74286	-1882.08466	105.42737	1305.95795	-1978.15735	136.25056	1325.89096	-1718.40591	133.75432	1223.68042	-1698.56934	315.18698	1398.77899	-1845.60562	364.4149	1176.98891	-1894.45755	373.95203	1101.86768	-1948.65692	404.58405	984.53712	-1933.62274	367.88734	851.68488	-1861.71402	393.76141	848.98651	-1936.05423	418.17207	802.65373	-1884.47586	-65.22851	1398.30063	-1800.24277	-134.02544	1224.18015	-1826.63757	-158.06761	1106.22299	-1824.06662	-167.48409	976.88393	-1765.73761	-96.64875	898.83865	-1652.10907	-166.24798	871.42776	-1692.85614	-152.98388	852.46597	-1621.36703	227.80081	951.828	-1758.0835	-6.71591	928.67035	-1758.75153	175.16653	993.13515	-1972.78366	28.64047	997.24274	-1970.06042	242.15235	704.49974	-1886.02219	273.31364	531.04057	-1672.2319	246.93256	335.9201	-1610.08087	250.38336	134.87475	-1651.7276	192.67992	115.66515	-1694.02924	240.77362	116.61988	-1476.25763	-17.48405	719.2131	-2007.37167	-17.9586	467.24697	-1985.22827	48.40129	284.5225	-2019.88144	22.26372	112.88072	-2149.21341	81.96428	131.90453	-2204.90189	44.76872	77.45435	-1993.01224
119	3.953	222.0787	1660.48874	-1716.31989	36.36383	1664.85748	-1720.15991	233.55495	1627.66022	-1842.44751	30.90477	1642.75085	-1835.57236	195.17805	1389.76227	-1730.7547	72.02637	1389.79126	-1724.71573	197.9134	1458.23669	-1873.26477	43.87019	1459.47296	-1856.27411	110.11382	1303.48877	-1952.34589	141.41434	1323.51074	-1692.47101	138.80124	1221.34827	-1672.41959	320.19127	1396.23383	-1820.23575	369.11655	1174.07845	-1868.2399	378.51311	1098.84537	-1922.45377	409.04743	981.70677	-1907.3642	372.74826	849.1172	-1834.74869	398.23593	846.09352	-1909.35089	422.84405	799.94095	-1857.62772	-59.85703	1396.02737	-1774.22501	-129.10303	1222.2377	-1801.42487	-153.68234	1104.40109	-1799.46014	-164.22812	974.28978	-1743.72345	-93.9596	892.58972	-1633.17078	-163.8089	867.29012	-1673.08823	-150.41815	846.63292	-1602.01874	231.89808	949.01344	-1731.12411	-2.59732	926.19713	-1733.78113	181.61793	990.85968	-1946.45538	35.24329	995.2803	-1944.34235	245.90261	702.31949	-1859.00757	271.59512	529.05945	-1643.28934	243.90343	329.68037	-1592.1431	246.47558	130.3199	-1642.42783	189.80223	113.05069	-1687.00394	232.64263	107.13215	-1468.6348	-13.45258	720.76607	-1986.03989	-16.20116	468.29464	-1968.66592	48.30582	285.98339	-2010.03067	20.54741	119.64478	-2146.23199	80.22496	140.67908	-2200.92285	44.2652	77.35168	-1992.5589
120	3.987	227.73159	1659.4812	-1690.03845	41.42378	1662.89261	-1693.94669	239.1765	1626.17126	-1815.36087	36.52218	1640.57785	-1809.28711	201.19635	1388.41064	-1703.16315	78.11388	1388.29926	-1697.38205	204.1234	1456.45218	-1846.06522	50.08312	1457.62863	-1829.39941	116.78006	1301.31973	-1924.73434	147.41485	1322.23938	-1664.78149	144.86964	1220.18578	-1644.25674	326.5123	1395.05005	-1792.70508	375.4147	1172.27493	-1839.23935	383.98842	1096.85188	-1893.78357	414.33273	979.6582	-1877.77084	377.80548	847.83539	-1803.55591	402.84397	844.04785	-1878.33969	427.65285	798.3374	-1826.35468	-53.56776	1393.93768	-1747.15027	-123.62097	1220.88638	-1775.93399	-148.61623	1103.54866	-1775.45624	-160.52137	972.35359	-1722.5351	-90.60018	887.03392	-1614.24927	-161.02652	863.51067	-1654.49326	-147.43496	840.80292	-1584.08157	235.83084	946.51176	-1701.23978	2.00377	924.86275	-1705.75378	189.31562	989.27238	-1916.64291	43.09001	993.90198	-1915.60181	248.86061	700.14633	-1831.56891	271.36143	523.89664	-1622.15042	241.6431	319.50201	-1581.65375	240.3137	123.48111	-1642.48993	183.29762	108.39594	-1686.31775	226.18061	93.98358	-1469.88876	-8.05364	722.4511	-1960.86365	-13.82604	469.93553	-1948.09235	48.78287	288.10528	-1997.00943	19.70853	128.49391	-2141.16409	79.55895	152.41775	-2194.62173	43.88437	77.19115	-1991.76376
121	4.02	234.15682	1661.18607	-1662.53906	48.88511	1662.11838	-1668.02551	245.59723	1627.23602	-1786.72577	42.89321	1640.66727	-1781.97784	208.10652	1388.69186	-1673.797	84.77457	1388.68179	-1668.80692	211.90573	1456.83563	-1816.8959	57.34066	1457.83691	-1801.56433	125.59016	1301.21552	-1895.37689	153.99183	1322.59964	-1635.77133	151.02667	1220.65109	-1614.8851	333.78345	1395.25146	-1762.60956	382.47616	1171.86745	-1808.55667	391.175	1095.7399	-1861.65085	420.51182	978.44017	-1844.28757	382.98111	847.89261	-1768.4938	408.21594	842.99675	-1843.27362	432.53578	797.79526	-1790.77789	-46.40563	1393.20663	-1719.76486	-117.08834	1220.6411	-1750.83038	-142.41585	1103.48526	-1751.28586	-155.87349	971.43173	-1702.28622	-86.97891	881.9487	-1596.76697	-157.86206	860.68314	-1637.53418	-144.40248	835.78011	-1567.87659	241.88618	946.80328	-1669.57321	7.9643	925.19547	-1675.15778	197.08485	990.3154	-1885.61676	50.279	993.97293	-1884.94965	251.69582	699.1246	-1805.39398	272.12133	516.0379	-1605.26718	240.5582	314.99531	-1563.66699	241.38224	121.67525	-1630.51147	184.83278	109.04378	-1676.76788	226.11254	84.12094	-1458.90747	-1.02733	723.02437	-1930.78278	-10.02604	471.06438	-1920.37506	50.54605	291.01812	-1978.85727	19.11196	140.90671	-2133.37112	79.86093	168.25155	-2184.21265	44.14253	76.86137	-1990.38284
